<?xml version="1.0" encoding="UTF-8"?>
<svg version="1.1" xmlns="http://www.w3.org/2000/svg" width="149" height="140">
<path d="M0 0 C49.17 0 98.34 0 149 0 C149 46.2 149 92.4 149 140 C99.83 140 50.66 140 0 140 C0 93.8 0 47.6 0 0 Z " fill="#F3F7FD" transform="translate(0,0)"/>
<path d="M0 0 C0.79140381 -0.00563965 1.58280762 -0.0112793 2.39819336 -0.01708984 C16.29764933 0.15289003 27.29110401 5.55057099 37.40625 15.09765625 C47.48187896 26.08396705 51.26086356 38.94266439 50.69921875 53.5703125 C50.17217972 61.10618395 48.69350763 67.50448405 45.4375 74.3125 C44.7775 74.3125 44.1175 74.3125 43.4375 74.3125 C43.1590625 75.3025 43.1590625 75.3025 42.875 76.3125 C38.22738415 86.01187222 28.51086118 93.5878345 18.66796875 97.53515625 C5.52148835 102.11685432 -8.70990429 101.67673703 -21.47265625 96.0234375 C-34.44900808 89.34784523 -43.11876642 79.53472183 -47.796875 65.6484375 C-51.1159102 51.52688207 -50.37742943 38.5588273 -43.5 25.75 C-43.10224365 25.00838623 -42.7044873 24.26677246 -42.29467773 23.50268555 C-38.95155022 17.53455459 -35.26238282 13.18302853 -29.5625 9.3125 C-28.758125 8.75304688 -27.95375 8.19359375 -27.125 7.6171875 C-18.26246024 1.88423209 -10.44171056 0.07066806 0 0 Z " fill="#6BA5F6" transform="translate(77.5625,23.6875)"/>
<path d="M0 0 C0.76966439 4.71419439 1.28110115 9.22128052 1 14 C-1 16 -1 16 -4.4375 16.4375 C-8 16 -8 16 -9.9375 14 C-11.38193189 9.92160407 -11.48144898 7.33304078 -11 3 C-8.03125145 -1.86874762 -5.19627613 -1.19914065 0 0 Z " fill="#E6F3FE" transform="translate(60,54)"/>
<path d="M0 0 C1.6640625 1.1796875 1.6640625 1.1796875 3 3 C3.3984375 5.59375 3.3984375 5.59375 3.375 8.5 C3.38273437 9.4590625 3.39046875 10.418125 3.3984375 11.40625 C3 14 3 14 1.66796875 15.82421875 C-0.88951353 17.62703413 -2.96554391 17.32281448 -6 17 C-6.66 16.34 -7.32 15.68 -8 15 C-8 14.01 -8 13.02 -8 12 C-6.68 12 -5.36 12 -4 12 C-4 12.66 -4 13.32 -4 14 C-3.01 13.01 -2.02 12.02 -1 11 C-1.94875 11.04125 -2.8975 11.0825 -3.875 11.125 C-7 11 -7 11 -9 9 C-9.33015665 5.89652746 -9.50531294 3.84218824 -7.875 1.125 C-5.11909116 -0.52854531 -3.14924548 -0.39365568 0 0 Z " fill="#ECF5FE" transform="translate(72,53)"/>
<path d="M0 0 C2.9375 0.8125 2.9375 0.8125 4.9375 2.8125 C5.203125 5.30859375 5.203125 5.30859375 5.1875 8.25 C5.19265625 9.21808594 5.1978125 10.18617187 5.203125 11.18359375 C4.9375 13.8125 4.9375 13.8125 2.9375 16.8125 C-0.6875 17 -0.6875 17 -4.0625 16.8125 C-4.7225 15.1625 -5.3825 13.5125 -6.0625 11.8125 C-1.3125 12.6875 -1.3125 12.6875 0.9375 13.8125 C0.9375 12.8225 0.9375 11.8325 0.9375 10.8125 C0.15375 10.85375 -0.63 10.895 -1.4375 10.9375 C-4.0625 10.8125 -4.0625 10.8125 -6.0625 8.8125 C-6.39552312 5.6820827 -6.53921956 3.63351702 -4.9375 0.875 C-3.0625 -0.1875 -3.0625 -0.1875 0 0 Z " fill="#EBF3FD" transform="translate(101.0625,53.1875)"/>
<path d="M0 0 C0.99 0 1.98 0 3 0 C2.54775239 5.91492272 1.8417395 11.35199888 0 17 C-1.32 17 -2.64 17 -4 17 C-4 16.01 -4 15.02 -4 14 C-5.98 14 -7.96 14 -10 14 C-10 10.37 -10 6.74 -10 3 C-9.01 3 -8.02 3 -7 3 C-7 5.97 -7 8.94 -7 12 C-5.68 12 -4.36 12 -3 12 C-2.01 8.04 -1.02 4.08 0 0 Z " fill="#CBDFFB" transform="translate(77,81)"/>
<path d="M0 0 C3.63 0 7.26 0 11 0 C10.49228528 5.96564796 8.61407872 10.63809899 6 16 C4.68 16 3.36 16 2 16 C3.33333333 12 4.66666667 8 6 4 C4.02 4 2.04 4 0 4 C0 2.68 0 1.36 0 0 Z " fill="#EEF7FE" transform="translate(82,54)"/>
<path d="M0 0 C2.97 0.495 2.97 0.495 6 1 C6.04241723 3.33294775 6.04092937 5.66702567 6 8 C5 9 5 9 2.4375 9.0625 C1.633125 9.041875 0.82875 9.02125 0 9 C-0.33 8.01 -0.66 7.02 -1 6 C-0.01 6 0.98 6 2 6 C1.01 5.67 0.02 5.34 -1 5 C-0.67 3.35 -0.34 1.7 0 0 Z " fill="#D0E2FC" transform="translate(82,86)"/>
<path d="M0 0 C0.99 0 1.98 0 3 0 C3 2.97 3 5.94 3 9 C3.99 9 4.98 9 6 9 C6 9.66 6 10.32 6 11 C4.02 11 2.04 11 0 11 C0 7.37 0 3.74 0 0 Z " fill="#E5F0FD" transform="translate(67,84)"/>
<path d="M0 0 C0.99 0 1.98 0 3 0 C2.67 3.3 2.34 6.6 2 10 C1.01 10 0.02 10 -1 10 C-1.125 3.375 -1.125 3.375 0 0 Z " fill="#DDEBFD" transform="translate(77,81)"/>
<path d="M0 0 C1.32 0 2.64 0 4 0 C3.125 4.75 3.125 4.75 2 7 C1.01 7 0.02 7 -1 7 C-0.67 4.69 -0.34 2.38 0 0 Z " fill="#E8F1FD" transform="translate(77,66)"/>
<path d="M0 0 C2.97 0.495 2.97 0.495 6 1 C5.67 2.32 5.34 3.64 5 5 C3.35 5 1.7 5 0 5 C-0.33 4.01 -0.66 3.02 -1 2 C-0.01 2 0.98 2 2 2 C1.34 1.34 0.68 0.68 0 0 Z " fill="#E9F1FD" transform="translate(82,90)"/>
</svg>
